<svg width="200" height="200" viewBox="0 0 200 200" xmlns="http://www.w3.org/2000/svg">
    <path d="M71.59,42.22,57.69,43l2.17,14.19c-1.39-.26-2.79-.41-4.22-.41-7.97,0-15.04,4.62-18.39,11.34l-1.61,3.81L30,77.73l-4.94-8.2L27,66.68c-4.49-6.4-4.19-14.96.72-21.11A19.88,19.88,0,0,1,48.4,45.7Z" fill="#3e3e3e"/>
    <path d="M97.77,43l-13.9-.78c-.26,1.39-.41,2.79-.41,4.22,0,7.97,4.62,15.04,11.34,18.39l3.81,1.61,2.28-13.72,4.94,8.2-1.53,3.12c4.49,6.4,4.19,14.96-.72,21.11a19.88,19.88,0,0,1-19.68,3.24l6.5-6.5-2.73-4.17-2.2,1.43L79.34,84l-4.94-8.2,2.73-4.17c-3.79-3.59-6-8.49-6-13.82,0-12.54,10.17-22.71,22.71-22.71,5.33,0,10.23,2.21,13.82,6l3.89-3.89,3.94,3.94c3.59-3.79,8.49-6,13.82-6,12.54,0,22.71,10.17,22.71,22.71,0,5.33-2.21,10.23-6,13.82l2.28,1.43,2.73,4.17L145,84l-9.16-28.35-2.2-1.43-2.73,4.17-6.5,6.5a19.88,19.88,0,0,1-3.24,19.68C112.73,47.19,104.17,47.49,97.77,43Z" fill="#3e3e3e"/>
    <text x="50" y="140" fill="#3e3e3e" font-size="24" font-family="Helvetica Neue" text-anchor="middle">BJJ Manager</text>
</svg>